<svg xmlns="http://www.w3.org/2000/svg" width="512" height="512" viewBox="0 0 512 512">
  <rect width="512" height="512" fill="#0f172a" rx="64"/>
  <path d="M256 120c-75.12 0-136 60.88-136 136s60.88 136 136 136 136-60.88 136-136-60.88-136-136-136zm0 208c-39.76 0-72-32.24-72-72s32.24-72 72-72 72 32.24 72 72-32.24 72-72 72z" fill="#60a5fa"/>
  <circle cx="200" cy="216" r="20" fill="#60a5fa"/>
  <circle cx="312" cy="216" r="20" fill="#60a5fa"/>
  <path d="M256 320c-26.51 0-48-21.49-48-48h96c0 26.51-21.49 48-48 48z" fill="#60a5fa"/>
  <text x="256" y="440" text-anchor="middle" fill="#60a5fa" font-family="Arial, sans-serif" font-size="32" font-weight="bold">GameChat AI</text>
</svg>
